<?xml version="1.0" encoding="UTF-8" standalone="no"?>
<!-- Created with Inkscape (http://www.inkscape.org/) -->

<svg
   width="1660"
   height="460"
   viewBox="0 0 439.20833 121.70833"
   version="1.1"
   id="svg28"
   xml:space="preserve"
   inkscape:export-filename="banner.png"
   inkscape:export-xdpi="96"
   inkscape:export-ydpi="96"
   inkscape:version="1.2.1 (0f2f062aeb, 2022-09-21, custom)"
   sodipodi:docname="banner.svg"
   xmlns:inkscape="http://www.inkscape.org/namespaces/inkscape"
   xmlns:sodipodi="http://sodipodi.sourceforge.net/DTD/sodipodi-0.dtd"
   xmlns="http://www.w3.org/2000/svg"
   xmlns:svg="http://www.w3.org/2000/svg"><sodipodi:namedview
     id="namedview30"
     pagecolor="#ffffff"
     bordercolor="#666666"
     borderopacity="1.0"
     inkscape:showpageshadow="2"
     inkscape:pageopacity="0.0"
     inkscape:pagecheckerboard="0"
     inkscape:deskcolor="#d1d1d1"
     inkscape:document-units="mm"
     showgrid="false"
     inkscape:zoom="0.54866744"
     inkscape:cx="710.81309"
     inkscape:cy="628.79619"
     inkscape:window-width="1920"
     inkscape:window-height="1057"
     inkscape:window-x="0"
     inkscape:window-y="22"
     inkscape:window-maximized="1"
     inkscape:current-layer="layer1" /><defs
     id="defs25" /><g
     inkscape:label="Layer 1"
     inkscape:groupmode="layer"
     id="layer1"><g
       id="g1977"
       transform="matrix(0.53590987,0,0,0.52485743,101.77018,0.23933035)"><path
         style="fill:none;stroke:#5f0f40;stroke-width:5.54743;stroke-linecap:butt;stroke-linejoin:miter;stroke-dasharray:none;stroke-opacity:1"
         d="m 363.29585,91.935464 c 0,0 -1.69565,11.386296 10.63053,-2.347359 12.32617,-13.733651 -2.55776,-9.163251 -2.55776,-9.163251 0,0 -6.70932,3.341756 -9.27806,17.936793 -2.56872,14.595043 10.75362,10.591113 16.0014,0.812073"
         id="path1190-7-6"
         sodipodi:nodetypes="cscsc" /><path
         style="fill:none;stroke:#5f0f40;stroke-width:7.39658;stroke-linecap:butt;stroke-linejoin:miter;stroke-dasharray:none;stroke-opacity:1"
         d="m 123.56972,41.22896 c 0.14775,-3.279 19.86833,-22.541077 -2.80519,-34.3005038 C 98.091025,-4.8309687 41.72065,29.531974 66.368779,63.077689 c 24.64813,33.545709 65.542911,60.772051 32.525163,100.794031 -33.017741,40.02197 -58.567133,-2.44269 -58.567133,-2.44269 0,0 -6.71431,-17.19539 3.131084,-25.30855"
         id="path1186" /><path
         style="fill:none;stroke:#5f0f40;stroke-width:5.54743;stroke-linecap:butt;stroke-linejoin:miter;stroke-dasharray:none;stroke-opacity:1"
         d="m 121.35599,100.26215 c 0,0 2.82625,8.73216 15.15243,-5.001486 12.32617,-13.733653 -3.22262,-7.088159 -3.22262,-7.088159 0,0 -10.56636,3.920799 -13.1351,18.515835 -2.56872,14.59503 13.85764,13.69942 19.10541,3.92038"
         id="path1190"
         sodipodi:nodetypes="cscsc" /><path
         style="fill:none;stroke:#5f0f40;stroke-width:5.54743;stroke-linecap:butt;stroke-linejoin:miter;stroke-dasharray:none;stroke-opacity:1"
         d="m 149.41143,95.430341 c 0,0 2.82625,8.732159 15.15242,-5.001496 12.32618,-13.733649 -3.22261,-7.088156 -3.22261,-7.088156 0,0 -10.56637,3.920796 -13.13511,18.515831 -2.56872,14.59504 13.85764,13.69942 19.10542,3.92039"
         id="path1190-7"
         sodipodi:nodetypes="cscsc" /><path
         style="fill:none;stroke:#5f0f40;stroke-width:7.39658;stroke-linecap:butt;stroke-linejoin:miter;stroke-dasharray:none;stroke-opacity:1"
         d="m 181.12607,73.730274 c 0,0 0.14627,34.110666 3.02336,50.842576 0.73368,4.26687 10.30737,49.81973 42.83426,0.54977 10.18792,-25.3117 8.76554,-30.34535 8.32128,-39.05533 -0.67695,-13.271887 -2.89872,-18.480798 -2.71621,-17.252947 0.30224,2.033633 -6.55387,135.375737 -6.55387,135.375737 0,0 -8.16121,26.74769 -28.16995,24.64965 -20.00876,-2.09802 0.76928,-36.13295 0.76928,-36.13295 0,0 10.79667,-11.70418 23.43171,-17.72573 17.39237,-8.28876 31.01342,-27.58693 33.47112,-37.34667"
         id="path1252"
         sodipodi:nodetypes="cscscccccc" /><path
         style="fill:none;stroke:#5f0f40;stroke-width:5.54743;stroke-linecap:butt;stroke-linejoin:miter;stroke-dasharray:none;stroke-opacity:1"
         d="m 259.23366,107.3304 c 0.66523,0.15774 9.06898,-13.223538 2.6854,-22.944493 -6.38358,-9.720971 -13.7528,4.387539 -14.44422,7.476925 -0.69139,3.08938 -6.54797,17.364018 11.75882,15.467568 z"
         id="path1254" /><path
         style="fill:none;stroke:#5f0f40;stroke-width:5.54743;stroke-linecap:butt;stroke-linejoin:miter;stroke-dasharray:none;stroke-opacity:1"
         d="m 273.51106,78.793555 c 0,0 -3.57068,24.862735 2.80483,24.701805 6.3755,-0.16088 8.87148,-15.386445 10.57626,-23.831579 -2.18127,14.288004 -7.21723,26.170409 2.62491,24.536949 11.1967,-1.85828 -5.45462,1.30798 7.07502,-0.83091"
         id="path1256"
         sodipodi:nodetypes="cscsc" /><path
         style="fill:none;stroke:#5f0f40;stroke-width:7.39658;stroke-linecap:butt;stroke-linejoin:miter;stroke-dasharray:none;stroke-opacity:1"
         d="m 258.8508,25.92718 c 0,0 15.01285,7.446584 35.54339,2.540186 C 314.9247,23.560969 321.9398,9.785934 310.76623,4.7709601 299.59265,-0.24401196 292.97338,21.878789 293.61608,34.80637 c 0.64269,12.927585 27.38252,102.27732 20.12802,111.68957 -7.25449,9.41226 -22.42014,11.67796 -26.6552,2.07587 -4.23506,-9.60209 12.36044,-25.20127 25.83175,-22.89444 13.47128,2.30681 29.73476,17.38358 51.04737,15.7646 21.31261,-1.61898 27.75708,-3.09269 27.75708,-3.09269"
         id="path1258" /><g
         id="g1956"
         transform="translate(-4.6489083,-6.6896502)"><path
           style="fill:none;stroke:#5f0f40;stroke-width:5.54743;stroke-linecap:butt;stroke-linejoin:miter;stroke-dasharray:none;stroke-opacity:1"
           d="m 324.05761,93.403816 c 0,0 0.49859,-4.547194 5.69014,-4.77168 5.19156,-0.224468 5.65261,12.000634 9.01008,20.048744 3.35747,8.0481 6.80206,7.79268 6.80206,7.79268"
           id="path1889"
           sodipodi:nodetypes="cssc" /><path
           style="fill:none;stroke:#5f0f40;stroke-width:5.54743;stroke-linecap:butt;stroke-linejoin:miter;stroke-dasharray:none;stroke-opacity:1"
           d="m 335.32508,99.810678 c 0,0 -7.81656,2.410432 -11.80076,8.719102 -3.9842,6.30869 6.40618,6.0576 8.65213,4.49594 2.24595,-1.56166 6.09387,-5.13596 6.09387,-5.13596"
           id="path1891" /></g><g
         id="g1960"
         transform="translate(-1.5531325,-3.7495707)"><path
           style="fill:none;stroke:#5f0f40;stroke-width:5.54743;stroke-linecap:butt;stroke-linejoin:miter;stroke-dasharray:none;stroke-opacity:1"
           d="m 348.81912,77.441811 c 0,0 -2.05703,31.158909 0.27147,32.314729 2.3285,1.15585 3.74152,2.81253 6.24256,-2.8605"
           id="path1893"
           sodipodi:nodetypes="csc" /><path
           style="fill:none;stroke:#5f0f40;stroke-width:5.54743;stroke-linecap:butt;stroke-linejoin:miter;stroke-dasharray:none;stroke-opacity:1"
           d="m 342.07875,97.695643 c 0,0 12.53649,-4.070873 14.33453,-6.704017"
           id="path1895"
           sodipodi:nodetypes="cc" /></g><path
         style="fill:none;stroke:#5f0f40;stroke-width:5.54743;stroke-linecap:butt;stroke-linejoin:miter;stroke-dasharray:none;stroke-opacity:1"
         d="m 388.29628,77.642474 1.60384,32.058766 c 0,0 0.3497,-30.854432 14.6438,-26.470657"
         id="path1924"
         sodipodi:nodetypes="ccc" /></g></g></svg>
